<svg xmlns="http://www.w3.org/2000/svg" xmlns:xlink="http://www.w3.org/1999/xlink" xmlns:inkscape="http://www.inkscape.org/namespaces/inkscape" version="1.1" width="350" height="280" viewBox="0 0 350 280">
<defs>
<clipPath id="clip_1">
<path transform="matrix(1,0,0,-1,0,280)" d="M0 280H350V0H0Z"/>
</clipPath>
</defs>
<g inkscape:groupmode="layer" inkscape:label="Laag 1">
<g clip-path="url(#clip_1)">
<path transform="matrix(1,0,0,-1,55.2034,194.28839)" d="M0 0H4.992C6.562 0 7.959-.303 9.144-.9 10.308-1.486 11.217-2.333 11.844-3.416 12.475-4.508 12.794-5.8 12.794-7.253 12.794-8.708 12.475-9.999 11.844-11.09 11.218-12.173 10.31-13.019 9.144-13.607 7.96-14.204 6.563-14.507 4.992-14.507H0ZM11.839 3.098C9.904 4.066 7.665 4.557 5.186 4.557H-5.203V-19.064H5.186C7.666-19.064 9.904-18.573 11.839-17.606 13.791-16.63 15.327-15.229 16.407-13.442 17.484-11.657 18.03-9.575 18.03-7.253 18.03-4.931 17.484-2.849 16.407-1.065 15.327 .723 13.791 2.123 11.839 3.098" fill="#1d3947"/>
<path transform="matrix(1,0,0,-1,84.0322,203.5943)" d="M0 0H10.921V4.46H0V9.339H12.311V13.863H-5.203V-9.758H12.763V-5.233H0Z" fill="#1d3947"/>
<path transform="matrix(1,0,0,-1,111.6833,206.42)" d="M0 0-7.2 16.688H-12.853L-2.527-6.932H2.265L12.558 16.688H7.263Z" fill="#1d3947"/>
<path transform="matrix(1,0,0,-1,0,280)" d="M127.504 66.648H132.707V90.269008H127.504Z" fill="#1d3947"/>
<path transform="matrix(1,0,0,-1,147.2219,195.0495)" d="M0 0C1.146 .634 2.468 .955 3.926 .955 6.159 .955 8.068 .117 9.6-1.534L9.943-1.905 13.374 1.322 13.062 1.687C11.96 2.968 10.593 3.959 8.999 4.632 7.415 5.302 5.642 5.641 3.731 5.641 1.374 5.641-.788 5.115-2.696 4.078-4.61 3.036-6.137 1.578-7.232-.258-8.33-2.093-8.886-4.191-8.886-6.492-8.886-8.793-8.336-10.89-7.249-12.725-6.163-14.563-4.641-16.022-2.728-17.063-.82-18.1 1.343-18.626 3.699-18.626 5.611-18.626 7.388-18.286 8.982-17.617 10.587-16.944 11.96-15.953 13.062-14.67L13.372-14.309 9.944-11.044 9.598-11.42C8.066-13.092 6.158-13.94 3.926-13.94 2.467-13.94 1.146-13.619 0-12.985-1.141-12.354-2.044-11.466-2.684-10.347-3.326-9.224-3.651-7.927-3.651-6.492-3.651-5.058-3.326-3.761-2.684-2.638-2.043-1.518-1.14-.63 0 0" fill="#1d3947"/>
<path transform="matrix(1,0,0,-1,170.7838,203.5943)" d="M0 0H10.921V4.46H0V9.339H12.311V13.863H-5.203V-9.758H12.763V-5.233H0Z" fill="#1d3947"/>
<path transform="matrix(1,0,0,-1,195.4782,193.3212)" d="M0 0V0C1.469 .816 3.127 1.23 4.926 1.23 7.598 1.23 9.817 .376 11.521-1.307L11.881-1.663 13.599 .11 13.273 .458C12.256 1.543 11.009 2.373 9.564 2.926 8.135 3.473 6.553 3.751 4.862 3.751 2.567 3.751 .469 3.23-1.376 2.202-3.225 1.171-4.702-.272-5.765-2.086-6.83-3.901-7.369-5.965-7.369-8.221-7.369-10.477-6.83-12.541-5.765-14.355-4.701-16.171-3.224-17.614-1.376-18.643 .468-19.671 2.567-20.193 4.862-20.193 6.532-20.193 8.109-19.91 9.55-19.351 11.003-18.788 12.256-17.952 13.273-16.867L13.599-16.519 11.881-14.745 11.521-15.102C9.796-16.807 7.577-17.671 4.926-17.671 3.126-17.671 1.468-17.258 0-16.442-1.463-15.629-2.628-14.491-3.461-13.057-4.295-11.625-4.718-9.997-4.718-8.221-4.718-6.444-4.295-4.817-3.461-3.384-2.629-1.951-1.464-.813 0 0" fill="#208cb7"/>
<path transform="matrix(1,0,0,-1,232.3178,200.1358)" d="M0 0H-14.119V10.404H-16.769V-13.217H-14.119V-2.457H0V-13.217H2.651V10.404H0Z" fill="#208cb7"/>
<path transform="matrix(1,0,0,-1,257.088,204.5948)" d="M0 0H-10.301L-5.164 11.34ZM-4.005 14.863H-6.294L-17.16-8.758H-14.277L-11.401-2.392H1.072L3.98-8.758H6.861L-3.87 14.572Z" fill="#208cb7"/>
<path transform="matrix(1,0,0,-1,0,280)" d="M268.909 66.648H271.559V90.269008H268.909Z" fill="#208cb7"/>
<path transform="matrix(1,0,0,-1,297.3493,189.7316)" d="M0 0V-18.693L-14.634 0H-16.769V-23.621H-14.119V-4.925L.397-23.427 .547-23.621H2.651V0Z" fill="#208cb7"/>
<path transform="matrix(1,0,0,-1,201.4687,133.5679)" d="M0 0-26.469-15.282-52.937 0V2.291 28.272 30.563L-26.469 45.845 0 30.563V0ZM-26.469 67.243-71.469 41.262V-10.699L-26.469-36.68 18.531-10.699V41.262Z" fill="#1f425e"/>
<path transform="matrix(1,0,0,-1,201.4687,103.004398)" d="M0 0V0L18.531 10.699-26.469 36.68V15.282Z" fill="#7ab7d9"/>
<path transform="matrix(1,0,0,-1,148.5313,131.2765)" d="M0 0V25.981 28.272L-18.531 38.971V-12.99L0-2.291Z" fill="#208cb7"/>
<path transform="matrix(1,0,0,-1,148.5313,103.004398)" d="M0 0 26.469 15.282V36.68L-18.531 10.699 0 0Z" fill="#52a2c9"/>
<path transform="matrix(1,0,0,-1,175,170.24771)" d="M0 0V21.398L-26.469 36.68-45 25.981Z" fill="#007ba6"/>
<path transform="matrix(1,0,0,-1,175,170.24771)" d="M0 0 45 25.981 26.469 36.68 0 21.398Z" fill="#006790"/>
<path transform="matrix(1,0,0,-1,201.4687,103.0045)" d="M0 0V-30.563L18.531-41.262V10.699Z" fill="#9aceec"/>
<path transform="matrix(1,0,0,-1,175,92.3055)" d="M0 0-22.5-12.99V-38.971L0-51.961 22.5-38.971V-12.99Z" fill="#006b97"/>
<path transform="matrix(1,0,0,-1,197.5,105.29581)" d="M0 0-22.5 12.99V-12.99Z" fill="#006790"/>
<path transform="matrix(1,0,0,-1,175,92.3055)" d="M0 0-22.5-12.99 0-25.981Z" fill="#007ba6"/>
<path transform="matrix(1,0,0,-1,152.5,105.29581)" d="M0 0V-25.981L22.5-38.971V-12.99Z" fill="#9aceec"/>
<path transform="matrix(1,0,0,-1,175,118.286197)" d="M0 0V-25.981L22.5-12.99V12.99Z" fill="#208cb7"/>
</g>
</g>
</svg>
