<svg xmlns="http://www.w3.org/2000/svg" viewBox="123.03 66.32 103.93 103.93">
  <!-- DeviceChain mark (symbol only) -->
  <path fill="#1F425E" d="M175,66.32l-45,25.98v51.96l45,25.98l45-25.98V92.31L175,66.32z M201.47,133.57L175,148.85l-26.47-15.28v0 v-2.29V105.3V103v0L175,87.72L201.47,103v0V133.57L201.47,133.57z"/>
  <polygon fill="#7AB7D9" points="201.47,103 201.47,103 220,92.31 175,66.32 175,87.72"/>
  <polygon fill="#208CB7" points="148.53,131.28 148.53,105.3 148.53,103 130,92.31 130,144.27 148.53,133.57"/>
  <polygon fill="#52A2C9" points="148.53,103 175,87.72 175,66.32 130,92.31 148.53,103"/>
  <polygon fill="#007BA6" points="175,170.25 175,148.85 148.53,133.57 148.53,133.57 130,144.27 175,170.25"/>
  <polygon fill="#006790" points="175,170.25 220,144.27 201.47,133.57 201.47,133.57 175,148.85 175,170.25"/>
  <polygon fill="#9ACEEC" points="201.47,103 201.47,133.57 220,144.27 220,92.31"/>
  <polygon fill="#006B97" points="175,92.31 152.5,105.3 152.5,131.28 175,144.27 197.5,131.28 197.5,105.3"/>
  <polygon fill="#006790" points="197.5,105.3 175,92.31 175,118.29"/>
  <polygon fill="#007BA6" points="175,92.31 152.5,105.3 175,118.29"/>
  <polygon fill="#9ACEEC" points="152.5,105.3 152.5,131.28 175,144.27 175,118.29"/>
  <polygon fill="#208CB7" points="175,118.29 175,144.27 197.5,131.28 197.5,105.3"/>
</svg>
